<svg xmlns="http://www.w3.org/2000/svg" xmlns:xlink="http://www.w3.org/1999/xlink" width="64" height="64" viewBox="0 0 64 64"><defs><path id="wb77a" d="M1551 823c17.673 0 32 14.327 32 32 0 10.944-5.494 20.605-13.875 26.375l-.66-1.98C1576.055 873.95 1581 865.053 1581 855c0-16.569-13.432-30-30-30-16.569 0-30 13.431-30 30 0 16.568 13.431 30 30 30v2c-17.673 0-32-14.327-32-32 0-17.673 14.327-32 32-32z"/><path id="wb77b" d="M1536.565 847.464a1 1 0 0 1 1.414 0l14.85 14.85 9.192-9.193a1 1 0 1 1 1.414 1.414l-9.9 9.9a1 1 0 0 1-1.414 0l-15.556-15.557a1 1 0 0 1 0-1.414z"/></defs><g><g opacity=".64" transform="translate(-1519 -823)"><use fill="#fff" xlink:href="#wb77a"/></g><g opacity=".64" transform="translate(-1519 -823)"><use fill="#fff" xlink:href="#wb77b"/></g></g></svg>