<svg xmlns="http://www.w3.org/2000/svg" xmlns:xlink="http://www.w3.org/1999/xlink" width="64" height="64" viewBox="0 0 64 64"><defs><path id="y2xka" d="M391 823c17.673 0 32 14.327 32 32 0 10.944-5.494 20.605-13.875 26.375l-.66-1.98C416.055 873.95 421 865.053 421 855c0-16.569-13.432-30-30-30-16.569 0-30 13.431-30 30 0 16.568 13.431 30 30 30v2c-17.673 0-32-14.327-32-32 0-17.673 14.327-32 32-32z"/><path id="y2xkb" d="M389 841a1 1 0 0 1 2 0v21h11a1 1 0 0 1 0 2h-12a1 1 0 0 1-1-1z"/></defs><g><g transform="translate(-359 -823)"><use fill="#fff" xlink:href="#y2xka"/></g><g transform="translate(-359 -823)"><use fill="#fff" xlink:href="#y2xkb"/></g></g></svg>