<svg xmlns="http://www.w3.org/2000/svg" xmlns:xlink="http://www.w3.org/1999/xlink" width="64" height="64" viewBox="0 0 64 64"><defs><path id="nz0ga" d="M961 823c17.673 0 32 14.327 32 32 0 10.944-5.494 20.605-13.875 26.375l-.66-1.98C986.055 873.95 991 865.053 991 855c0-16.569-13.431-30-30-30-16.569 0-30 13.431-30 30 0 16.568 13.431 30 30 30v2c-17.673 0-32-14.327-32-32 0-17.673 14.327-32 32-32z"/></defs><g><g opacity=".64" transform="translate(-929 -823)"><use fill="#fff" xlink:href="#nz0ga"/></g><g opacity=".64" transform="translate(-929 -823)"><g><text dominant-baseline="text-before-edge" style="line-height:30px" fill="#fff" font-family="'OpenSans','OpenSans'" font-size="16" font-style="none" font-weight="400" transform="translate(946 846)"><tspan style="font-kerning:normal" font-size="24">1</tspan><tspan style="font-kerning:normal">кг.</tspan></text></g></g></g></svg>