<svg xmlns="http://www.w3.org/2000/svg" xmlns:xlink="http://www.w3.org/1999/xlink" width="64" height="64" viewBox="0 0 64 64"><defs><path id="k7exa" d="M1251 823c17.673 0 32 14.327 32 32 0 10.944-5.494 20.605-13.875 26.375l-.66-1.98C1276.055 873.95 1281 865.053 1281 855c0-16.569-13.432-30-30-30-16.569 0-30 13.431-30 30 0 16.568 13.431 30 30 30v2c-17.673 0-32-14.327-32-32 0-17.673 14.327-32 32-32z"/><path id="k7exb" d="M1265 864c0 3.866-6.044 7-13.5 7s-13.5-3.134-13.5-7c0-2.04 1.683-3.877 4.369-5.156l.382 1.91c-1.715.874-2.751 2.007-2.751 3.246 0 2.761 5.149 5 11.5 5s11.5-2.239 11.5-5c0-1.239-1.036-2.372-2.751-3.245l.382-1.911c2.686 1.28 4.369 3.116 4.369 5.156z"/><path id="k7exc" d="M1251.5 863.005s-6.923-5.872-8.95-11.005h2.166c1.876 4.067 6.784 8.691 6.784 8.691s7.537-7.026 7.5-11.421c-.05-5.88-3.358-8.275-7.5-8.275-4.078 0-7.38 2.319-7.497 8.005h-1.997c.186-7.106 4.353-10.005 9.494-10.005 5.247 0 9.438 3.023 9.5 10.45.047 5.553-9.5 13.56-9.5 13.56zm-9.5-13.56v-.02V849.446z"/><path id="k7exd" d="M1251.5 845a3.5 3.5 0 1 1 0 7 3.5 3.5 0 0 1 0-7zm-1.5 3.5a1.5 1.5 0 1 0 3 0 1.5 1.5 0 0 0-3 0z"/></defs><g><g opacity=".64" transform="translate(-1219 -823)"><use fill="#fff" xlink:href="#k7exa"/></g><g opacity=".64" transform="translate(-1219 -823)"><use fill="#fff" xlink:href="#k7exb"/></g><g opacity=".64" transform="translate(-1219 -823)"><use fill="#fff" xlink:href="#k7exc"/></g><g opacity=".64" transform="translate(-1219 -823)"><use fill="#fff" xlink:href="#k7exd"/></g></g></svg>