<svg xmlns="http://www.w3.org/2000/svg" xmlns:xlink="http://www.w3.org/1999/xlink" width="193" height="48" viewBox="0 0 193 48"><defs><path id="pihda" d="M388.002 4065.762l-.814-4.85-3.036 4.85zm-1.496 5.353l.16-.685c.643-.05 1.145-.129 1.504-.239.36-.109.54-.23.54-.36 0-.113-.007-.21-.02-.291a14.94 14.94 0 0 0-.046-.281l-.469-2.616h-4.58c-.15.231-.34.536-.57.914-.228.378-.421.702-.578.97-.238.425-.377.716-.417.872-.041.157-.061.257-.061.3 0 .188.147.342.44.464.294.122.744.211 1.35.267l-.159.685h-5.59l.159-.685c.181-.012.409-.043.684-.093.275-.05.506-.125.694-.225.262-.138.51-.316.74-.535.232-.218.447-.484.647-.796 1.269-1.95 2.434-3.752 3.497-5.405 1.063-1.653 2.294-3.57 3.694-5.752h1.856l1.195 6.947c.316 1.831.593 3.363.83 4.594.031.187.092.358.183.51.09.154.236.3.436.437.15.1.333.175.548.225.216.05.417.08.605.093l-.16.685zm18.297-10.706c0-.62-.196-1.072-.587-1.36-.392-.287-.907-.431-1.546-.431-.125 0-.273.005-.442.014l-.394.023-1.158 5.007h.629c1.075 0 1.927-.299 2.555-.895.629-.597.943-1.383.943-2.358zm-.731 6.309c0-.719-.232-1.27-.695-1.655-.463-.384-1.148-.576-2.055-.576a11.709 11.709 0 0 0-.845.038l-1.144 4.948c.006.232.178.43.516.592.338.162.713.244 1.126.244.832 0 1.556-.335 2.173-1.004.616-.668.924-1.53.924-2.587zm-.252-8.906c1.606 0 2.785.198 3.538.595.753.397 1.13 1.005 1.13 1.824 0 .543-.121 1.021-.361 1.434a3.33 3.33 0 0 1-.952 1.04 5.696 5.696 0 0 1-1.364.722c-.516.194-1.049.347-1.599.46l-.037.178c.431.044.87.136 1.317.276.447.141.83.32 1.148.54.344.23.616.512.816.843.2.332.3.735.3 1.21 0 1.368-.573 2.408-1.72 3.117-1.147.71-2.84 1.064-5.077 1.064h-7.275l.16-.685c.156-.006.389-.03.698-.07.31-.04.54-.086.69-.136.243-.08.429-.203.557-.365.128-.163.217-.353.267-.572l2.15-9.3c.031-.132.053-.24.066-.328.012-.088.018-.153.018-.197 0-.263-.132-.467-.398-.614-.266-.147-.698-.264-1.298-.352l.159-.684zm11.717 13.669c-.856 0-1.65-.127-2.38-.38a5.506 5.506 0 0 1-1.895-1.094 4.945 4.945 0 0 1-1.228-1.742c-.294-.685-.44-1.46-.44-2.323 0-1.145.21-2.225.632-3.239a8.658 8.658 0 0 1 1.786-2.713c.738-.764 1.64-1.378 2.705-1.844a8.383 8.383 0 0 1 3.398-.7c.725 0 1.46.089 2.204.267.743.178 1.3.383 1.668.615l.703-.516h.816l-1.04 4.856h-.825c-.126-1.419-.502-2.498-1.13-3.239-.628-.74-1.436-1.111-2.424-1.111-.725 0-1.393.216-2.006.648-.612.431-1.156 1.094-1.631 1.988-.388.738-.683 1.594-.886 2.567a13.405 13.405 0 0 0-.305 2.735c0 1.25.303 2.223.91 2.918.606.694 1.418 1.041 2.437 1.041.894 0 1.722-.25 2.485-.75.762-.5 1.496-1.222 2.203-2.166l.722.488c-.307.475-.672.942-1.097 1.401a6.99 6.99 0 0 1-1.454 1.196 7.517 7.517 0 0 1-1.757.815c-.603.188-1.327.282-2.17.282zm24.835-4.632l-1.247 4.266h-12.253l.16-.685c.155-.006.388-.03.698-.07.309-.04.539-.086.689-.136.25-.08.437-.203.562-.365.125-.163.212-.353.263-.572l2.15-9.3c.03-.131.053-.24.065-.328a1.53 1.53 0 0 0 .019-.197c0-.263-.133-.467-.399-.614-.265-.147-.698-.264-1.298-.352l.16-.684h7.307l-.16.684c-.2.013-.456.043-.768.09a5.2 5.2 0 0 0-.712.145c-.263.08-.454.21-.572.389a1.798 1.798 0 0 0-.253.566l-2.034 8.841a5.82 5.82 0 0 0-.104.53 2.978 2.978 0 0 0-.037.399c0 .362.133.595.398.698.266.103.808.155 1.627.155.5 0 .997-.038 1.491-.113.494-.075.863-.212 1.107-.412.387-.313.819-.761 1.294-1.346.475-.584.862-1.114 1.162-1.589zm11.756-1.35c0 .788-.15 1.541-.45 2.26a5.546 5.546 0 0 1-1.275 1.874 6.25 6.25 0 0 1-2.086 1.318c-.797.31-1.692.464-2.686.464-1.331 0-2.406-.355-3.225-1.064-.819-.71-1.228-1.677-1.228-2.902a5.681 5.681 0 0 1 1.762-4.181c.55-.519 1.225-.93 2.026-1.233a7.27 7.27 0 0 1 2.596-.454c1.413 0 2.527.345 3.343 1.036.815.69 1.223 1.651 1.223 2.882zm-3.3-1.06c0-.73-.123-1.268-.37-1.611-.247-.344-.605-.516-1.074-.516-.481 0-.922.192-1.322.576-.4.385-.725.949-.975 1.693a9.813 9.813 0 0 0-.468 2.01c-.094.722-.14 1.368-.14 1.936 0 .757.124 1.305.374 1.646.25.34.613.51 1.088.51.512 0 .956-.209 1.33-.628.376-.418.672-.934.891-1.546.22-.6.385-1.264.497-1.993.113-.728.169-1.42.169-2.076zm10.96 5.691h-.075c-.156.126-.337.26-.543.404a4.05 4.05 0 0 1-.666.375 5.237 5.237 0 0 1-.807.314c-.25.071-.565.107-.946.107-1.088 0-1.924-.318-2.509-.956-.584-.637-.876-1.512-.876-2.625 0-.843.15-1.636.45-2.376.3-.74.706-1.396 1.218-1.964a5.664 5.664 0 0 1 1.796-1.322 5.08 5.08 0 0 1 2.19-.488c.562 0 1.058.06 1.49.178.431.12.803.304 1.115.554l2.864-.591.131.15-1.598 7.622c-.25 1.137-.597 2.076-1.04 2.817-.445.74-.96 1.33-1.548 1.767-.6.444-1.226.752-1.88.924a8.06 8.06 0 0 1-2.057.257c-.769 0-1.396-.058-1.88-.173-.484-.116-.855-.264-1.11-.445-.25-.175-.421-.37-.512-.586a1.627 1.627 0 0 1-.136-.633c0-.357.127-.677.38-.961.253-.284.605-.427 1.055-.427.337 0 .639.09.905.272.265.181.498.4.698.657.181.23.35.498.506.801.157.303.276.548.357.736.287-.05.573-.131.858-.244.284-.112.558-.325.82-.637.25-.3.49-.716.717-1.247.229-.531.44-1.284.633-2.26zm1.26-6.14c0-.156-.02-.317-.062-.483a1.237 1.237 0 0 0-.239-.473 1.3 1.3 0 0 0-.44-.37c-.176-.091-.414-.137-.714-.137-.407 0-.782.146-1.126.436-.344.29-.647.68-.91 1.167a6.941 6.941 0 0 0-.61 1.683 8.66 8.66 0 0 0-.225 1.983c0 .3.026.577.08.83.052.253.145.48.276.68.131.2.301.35.51.45.21.1.446.15.708.15.306 0 .62-.094.942-.282.321-.187.58-.387.773-.6zm10.861 5.784l-.206.844c-.619.244-1.113.43-1.481.558a3.914 3.914 0 0 1-1.285.192c-.75 0-1.332-.183-1.748-.549a1.772 1.772 0 0 1-.623-1.392c0-.218.015-.442.046-.67.032-.228.082-.486.15-.773l.774-2.738c.07-.263.128-.51.175-.745.046-.235.07-.449.07-.643 0-.35-.072-.593-.216-.73-.144-.138-.42-.207-.828-.207-.2 0-.405.031-.615.094a8.54 8.54 0 0 0-.54.178l.206-.844c.507-.206.991-.382 1.454-.53a4.36 4.36 0 0 1 1.315-.22c.744 0 1.318.18 1.722.54.403.359.605.826.605 1.4 0 .12-.014.33-.042.63-.028.299-.08.574-.155.824l-.77 2.728a7.6 7.6 0 0 0-.17.75c-.05.282-.075.494-.075.638 0 .362.08.609.243.74.162.131.443.197.843.197.187 0 .4-.033.636-.098a3.55 3.55 0 0 0 .515-.174zm.197-11.446c0 .475-.18.88-.539 1.214a1.84 1.84 0 0 1-1.298.501c-.507 0-.941-.167-1.304-.501a1.591 1.591 0 0 1-.543-1.214c0-.475.18-.882.543-1.22a1.845 1.845 0 0 1 1.304-.506c.506 0 .939.17 1.298.507.36.337.54.744.54 1.219zm4.219 13.096c-.788 0-1.44-.064-1.955-.192-.515-.128-.923-.292-1.223-.492-.307-.2-.516-.414-.628-.642a1.458 1.458 0 0 1-.169-.642c0-.363.136-.68.408-.952.272-.272.632-.408 1.082-.408.375 0 .69.097.943.29.253.195.464.438.633.732.156.269.287.566.393.89.106.326.182.566.225.722.706 0 1.24-.15 1.603-.454.363-.303.544-.717.544-1.242a.99.99 0 0 0-.164-.582 1.581 1.581 0 0 0-.436-.412 4.065 4.065 0 0 0-.694-.328c-.28-.106-.56-.206-.834-.3-.756-.256-1.355-.611-1.795-1.064-.44-.453-.661-1.017-.661-1.692 0-.4.092-.777.276-1.13.185-.353.474-.68.868-.98.387-.287.878-.517 1.471-.689.594-.172 1.288-.258 2.082-.258.475 0 .915.028 1.322.084a4.4 4.4 0 0 1 1.134.31c.331.15.589.345.773.586a1.4 1.4 0 0 1 .277.876c0 .344-.13.64-.39.886-.259.247-.598.37-1.016.37-.363 0-.664-.093-.905-.282a2.342 2.342 0 0 1-.586-.668 4.145 4.145 0 0 1-.356-.814c-.088-.279-.16-.513-.216-.7a2.044 2.044 0 0 0-1.195.475c-.36.293-.54.656-.54 1.09 0 .262.043.468.127.618.085.15.199.276.342.375.163.113.368.218.615.315.246.096.554.207.923.332.85.3 1.49.66 1.922 1.078.431.42.647.972.647 1.66 0 .45-.105.881-.314 1.293-.21.413-.508.757-.896 1.032-.43.3-.928.526-1.49.68-.563.152-1.278.23-2.147.23zm9.675-.065c-.75 0-1.35-.183-1.8-.549-.45-.365-.675-.83-.675-1.392 0-.231.015-.45.047-.656.03-.207.081-.472.15-.797l1.162-4.987h-1.715l.224-.966h1.75l.679-2.841h3.036l-.659 2.84h2.545l-.225.967h-2.531l-1.143 4.987a7.908 7.908 0 0 0-.127.638c-.04.25-.06.412-.06.487 0 .356.097.603.294.74.197.138.499.207.905.207.193 0 .46-.038.801-.113.34-.075.58-.137.717-.187l-.206.843c-.55.244-1.102.435-1.655.572a6.325 6.325 0 0 1-1.514.207zm10.865-1.585l-.206.844c-.618.244-1.112.43-1.48.558a3.913 3.913 0 0 1-1.285.192c-.75 0-1.333-.183-1.749-.549a1.772 1.772 0 0 1-.623-1.392c0-.218.015-.442.047-.67.03-.228.08-.486.15-.773l.773-2.738c.07-.263.128-.51.175-.745.047-.235.07-.449.07-.643 0-.35-.072-.593-.216-.73-.144-.138-.42-.207-.827-.207-.2 0-.406.031-.616.094-.21.063-.39.122-.54.178l.206-.844c.507-.206.992-.382 1.455-.53.463-.146.9-.22 1.314-.22.744 0 1.318.18 1.722.54.403.359.605.826.605 1.4 0 .12-.014.33-.042.63-.028.299-.08.574-.155.824l-.77 2.728a7.57 7.57 0 0 0-.17.75c-.05.282-.075.494-.075.638 0 .362.081.609.243.74.163.131.443.197.843.197.187 0 .4-.033.637-.098.237-.066.408-.124.515-.174zm.197-11.446c0 .475-.18.88-.539 1.214a1.84 1.84 0 0 1-1.298.501c-.506 0-.94-.167-1.303-.501a1.591 1.591 0 0 1-.544-1.214c0-.475.181-.882.544-1.22a1.845 1.845 0 0 1 1.303-.506c.506 0 .939.17 1.298.507.36.337.54.744.54 1.219zm5.363 13.096c-1.438 0-2.558-.36-3.361-1.078-.803-.718-1.205-1.706-1.205-2.962 0-.756.128-1.474.385-2.152a5.457 5.457 0 0 1 1.18-1.851c.495-.526 1.129-.953 1.904-1.285.775-.331 1.64-.497 2.597-.497 1.106 0 1.951.203 2.536.61.584.406.876.965.876 1.678 0 .194-.03.41-.093.646a1.667 1.667 0 0 1-.282.6 1.79 1.79 0 0 1-.51.46c-.185.106-.461.16-.83.16-.488 0-.867-.12-1.14-.362-.271-.24-.407-.492-.407-.754 0-.313.066-.622.197-.929.131-.306.297-.628.497-.965-.057-.069-.17-.153-.343-.253-.172-.1-.395-.15-.67-.15-.731 0-1.337.442-1.819 1.327-.48.884-.721 1.98-.721 3.285 0 .994.182 1.747.548 2.26.366.512.886.768 1.56.768.688 0 1.262-.132 1.721-.398.46-.266.93-.72 1.411-1.364l.675.572a5.799 5.799 0 0 1-2.034 1.912 5.31 5.31 0 0 1-2.672.722zm9.14 0c-.787 0-1.439-.064-1.954-.192-.516-.128-.924-.292-1.224-.492-.306-.2-.515-.414-.628-.642a1.457 1.457 0 0 1-.169-.642c0-.363.136-.68.408-.952.272-.272.633-.408 1.083-.408.375 0 .69.097.942.29.253.195.464.438.633.732.156.269.288.566.394.89.106.326.181.566.225.722.706 0 1.24-.15 1.603-.454.362-.303.544-.717.544-1.242a.99.99 0 0 0-.164-.582 1.58 1.58 0 0 0-.436-.412 4.06 4.06 0 0 0-.694-.328c-.281-.106-.56-.206-.834-.3-.757-.256-1.355-.611-1.796-1.064-.44-.453-.66-1.017-.66-1.692 0-.4.092-.777.276-1.13.184-.353.473-.68.867-.98.388-.287.878-.517 1.472-.689.594-.172 1.288-.258 2.081-.258.475 0 .916.028 1.322.084.406.057.784.16 1.135.31.33.15.589.345.773.586a1.4 1.4 0 0 1 .277.876c0 .344-.13.64-.39.886-.259.247-.598.37-1.017.37-.362 0-.664-.093-.904-.282a2.338 2.338 0 0 1-.586-.668 4.139 4.139 0 0 1-.357-.814 52.47 52.47 0 0 1-.215-.7 2.044 2.044 0 0 0-1.196.475c-.359.293-.539.656-.539 1.09 0 .262.043.468.127.618.084.15.198.276.342.375.163.113.367.218.614.315.247.096.555.207.924.332.85.3 1.49.66 1.922 1.078.43.42.646.972.646 1.66 0 .45-.104.881-.314 1.293-.21.413-.508.757-.895 1.032a4.79 4.79 0 0 1-1.49.68c-.563.152-1.279.23-2.147.23z"/><path id="pihdb" d="M379.107 4078.826h3.445v4.974h-.576v-4.493h-2.295v.93c0 .891-.032 1.599-.096 2.124-.056.498-.17.869-.342 1.112a.825.825 0 0 1-.713.364c-.165 0-.306-.022-.422-.065v-.472c.102.026.217.038.345.038.153 0 .29-.109.412-.326.049-.08.088-.206.118-.374.03-.167.054-.416.074-.746.019-.33.032-.72.04-1.17.007-.45.01-1.082.01-1.896zm7.202 5.107c-.431 0-.821-.099-1.17-.297a2.088 2.088 0 0 1-.829-.893c-.203-.397-.305-.874-.305-1.43 0-.49.087-.935.26-1.332.174-.398.435-.712.783-.943.349-.23.77-.345 1.261-.345.497 0 .92.114 1.268.343.349.229.609.541.78.936.17.396.256.843.256 1.341 0 .392-.054.75-.163 1.071a2.404 2.404 0 0 1-.466.829c-.202.23-.447.408-.733.533-.285.125-.6.187-.942.187zm1.69-2.62c0-.631-.137-1.14-.411-1.525-.275-.385-.7-.577-1.279-.577-.383 0-.7.097-.955.29-.254.194-.44.45-.558.77-.118.32-.177.667-.177 1.042 0 .416.065.782.194 1.1.129.316.321.563.578.739.256.176.562.263.918.263.38 0 .698-.097.953-.291.256-.195.442-.452.56-.772.118-.319.177-.666.177-1.039zm5.013-2.006h-2.496v4.493h-.576v-4.974h3.072zm4.325-.48h.635v4.973h-.577v-4.205l-2.831 4.205h-.642v-4.974h.576v4.205zm6.302 1.565h-.586c-.101-.377-.279-.668-.53-.873-.253-.205-.57-.308-.949-.308-.37 0-.682.1-.934.3-.252.2-.438.46-.557.782a2.948 2.948 0 0 0-.178 1.03c0 .582.14 1.077.418 1.483.278.406.695.61 1.251.61.422 0 .765-.119 1.029-.355.264-.236.43-.562.5-.98h.613c-.104.576-.337 1.028-.697 1.358-.36.33-.842.494-1.445.494-.383 0-.72-.065-1.01-.197a1.898 1.898 0 0 1-.717-.55 2.374 2.374 0 0 1-.419-.831 3.723 3.723 0 0 1-.137-1.033c0-.353.05-.687.15-1.003.1-.315.247-.595.44-.84.195-.244.435-.437.722-.577.286-.14.61-.21.971-.21.381 0 .717.062 1.007.186.29.123.524.311.703.564.179.252.297.569.355.95zm4.812-1.566v.48h-1.671v4.494h-.577v-4.493h-1.65v-.48zm4.085 0h.635v4.974h-.577v-4.205l-2.83 4.205h-.643v-4.974h.577v4.205zm5.304 2.133v-2.133h.576v4.974h-.576v-2.353c-.388.121-.9.182-1.535.182-.441 0-.812-.132-1.114-.398-.301-.266-.452-.635-.452-1.109v-1.296h.576v1.364c0 .29.1.515.297.678.198.162.464.243.798.243.458 0 .774-.01.95-.034a2.04 2.04 0 0 0 .48-.118zm2.044.01h3.246c0-.329-.06-.626-.18-.893a1.448 1.448 0 0 0-.536-.633c-.237-.155-.523-.232-.86-.232-.326 0-.608.078-.844.235a1.644 1.644 0 0 0-.56.633 2.678 2.678 0 0 0-.266.89zm3.86.48h-3.86c0 .359.063.689.192.99.128.302.317.54.568.714.25.175.554.262.91.262.382 0 .708-.1.978-.3.27-.2.447-.48.53-.839h.644c-.339 1.105-1.056 1.657-2.151 1.657-.513 0-.94-.112-1.284-.336a1.981 1.981 0 0 1-.758-.926 3.478 3.478 0 0 1-.243-1.34c0-.36.052-.701.157-1.022.104-.322.256-.603.456-.846s.443-.433.727-.567c.284-.136.6-.203.945-.203.339 0 .645.06.917.18.273.119.503.295.692.528.188.233.332.522.43.867.1.345.15.738.15 1.181zm5.493-1.057h-.586c-.101-.377-.278-.668-.53-.873-.253-.205-.569-.308-.948-.308-.37 0-.682.1-.934.3-.253.2-.438.46-.557.782a2.951 2.951 0 0 0-.178 1.03c0 .582.139 1.077.417 1.483.278.406.695.61 1.252.61.421 0 .764-.119 1.028-.355.265-.236.43-.562.5-.98h.614c-.105.576-.337 1.028-.697 1.358-.36.33-.842.494-1.445.494-.383 0-.72-.065-1.01-.197a1.898 1.898 0 0 1-.718-.55 2.377 2.377 0 0 1-.418-.831 3.727 3.727 0 0 1-.137-1.033c0-.353.05-.687.15-1.003.1-.315.247-.595.44-.84.194-.244.434-.437.721-.577.287-.14.61-.21.972-.21.38 0 .716.062 1.006.186.29.123.524.311.703.564.18.252.298.569.355.95zm2.028 3.408h-.577v-4.974h.577v2.363l2.44-2.363h.787l-1.863 1.796 2.083 3.178h-.644l-1.861-2.775-.942.893zm7.516-1.833v-.778c-.32.133-.815.225-1.486.279-.934.07-1.401.422-1.401 1.054 0 .286.105.507.315.661.21.155.463.232.758.232.502 0 .93-.123 1.283-.37.354-.247.531-.606.531-1.078zm-3.501.537c0-.844.579-1.343 1.737-1.498l.796-.106c.327-.03.58-.084.757-.164.14-.062.211-.235.211-.518 0-.312-.1-.558-.299-.738-.199-.18-.512-.27-.938-.27-.427 0-.762.085-1.006.254-.244.169-.391.458-.443.87h-.584c.026-.374.132-.684.316-.93.184-.248.425-.428.72-.541a2.8 2.8 0 0 1 1.007-.17c.55 0 .988.122 1.314.366.327.245.49.637.49 1.178v2.707c0 .164.018.282.056.354.037.072.106.108.204.108.08 0 .194-.026.344-.077v.452a1.597 1.597 0 0 1-.45.096c-.09 0-.177-.01-.26-.03-.173-.025-.292-.102-.355-.231a1.24 1.24 0 0 1-.104-.508 2.38 2.38 0 0 1-1.853.825c-.468 0-.862-.124-1.181-.372-.32-.249-.48-.601-.48-1.057zm8.707-.825h-1.373l-1.198 2.12h-.645l1.259-2.17c-.82-.2-1.229-.656-1.229-1.37 0-.57.182-.952.545-1.144a2.34 2.34 0 0 1 1.105-.289h2.112v4.974h-.576zm0-.481v-1.891h-1.295c-.425 0-.744.082-.957.247-.213.165-.32.4-.32.704 0 .297.108.528.322.693.215.165.491.247.828.247zm4.877 2.602h-.577v-4.974h.577v2.363l2.44-2.363h.787l-1.863 1.796 2.084 3.178h-.645l-1.86-2.775-.943.893zm6.241.133c-.43 0-.821-.099-1.17-.297a2.09 2.09 0 0 1-.829-.893c-.203-.397-.304-.874-.304-1.43 0-.49.086-.935.26-1.332.173-.398.434-.712.782-.943.349-.23.77-.345 1.261-.345.497 0 .92.114 1.268.343.349.229.608.541.78.936.17.396.256.843.256 1.341 0 .392-.054.75-.163 1.071a2.404 2.404 0 0 1-.466.829 2.06 2.06 0 0 1-.732.533c-.286.125-.6.187-.943.187zm1.69-2.62c0-.631-.137-1.14-.411-1.525-.274-.385-.7-.577-1.279-.577-.382 0-.7.097-.955.29-.254.194-.44.45-.557.77-.118.32-.178.667-.178 1.042 0 .416.065.782.194 1.1a1.6 1.6 0 0 0 .578.739c.256.176.562.263.918.263.38 0 .698-.097.953-.291.256-.195.442-.452.56-.772.118-.319.177-.666.177-1.039zm2.46 2.487h-.575v-4.974h.75l1.679 4.32 1.668-4.32h.75v4.974h-.577v-4.071l-1.583 4.07h-.527l-1.584-4.07zm9.789-4.974v4.974h-.577v-4.493h-2.763v4.493h-.577v-4.974zm4.936 3.141v-.778c-.32.133-.816.225-1.486.279-.935.07-1.402.422-1.402 1.054 0 .286.105.507.315.661.21.155.463.232.758.232.502 0 .93-.123 1.284-.37s.53-.606.53-1.078zm-3.502.537c0-.844.58-1.343 1.738-1.498l.796-.106c.326-.03.579-.084.757-.164.14-.062.21-.235.21-.518 0-.312-.1-.558-.298-.738-.2-.18-.512-.27-.939-.27-.426 0-.762.085-1.005.254-.244.169-.392.458-.443.87h-.585c.027-.374.132-.684.317-.93.184-.248.424-.428.72-.541a2.8 2.8 0 0 1 1.006-.17c.55 0 .988.122 1.315.366.326.245.49.637.49 1.178v2.707c0 .164.018.282.055.354.038.072.106.108.204.108.08 0 .195-.026.345-.077v.452a1.598 1.598 0 0 1-.45.096c-.09 0-.177-.01-.26-.03-.174-.025-.292-.102-.355-.231a1.239 1.239 0 0 1-.105-.508 2.38 2.38 0 0 1-1.852.825c-.469 0-.863-.124-1.182-.372-.32-.249-.479-.601-.479-1.057zm9.792-3.678v4.974h-.576v-2.41h-2.764v2.41h-.576v-4.974h.576v2.084h2.764v-2.084zm5.06 0h.636v4.974h-.577v-4.205l-2.831 4.205h-.642v-4.974h.576v4.205zm5.054 2.853h-1.373l-1.199 2.12h-.644l1.259-2.17c-.82-.2-1.229-.656-1.229-1.37 0-.57.182-.952.545-1.144a2.34 2.34 0 0 1 1.105-.289h2.112v4.974h-.576zm0-.481v-1.891h-1.295c-.425 0-.744.082-.957.247-.213.165-.32.4-.32.704 0 .297.108.528.322.693.215.165.49.247.828.247z"/><path id="pihdc" d="M344.812 4051.2l22.628 22.628.016.016-9.633-9.632-3.394 3.394-13.011-13.011a7.2 7.2 0 0 0-10.182 10.182l1.131 1.132-3.394 3.394 7.525 7.525-8.656-8.657c-4.687-4.686-4.687-12.284 0-16.97 4.686-4.686 12.284-4.686 16.97 0zm-2.362 31.58l-1.032-1.032z"/><path id="pihdd" d="M344.812 4051.2l22.628 22.628c4.686 4.686 4.686 12.284 0 16.97-4.687 4.687-12.285 4.687-16.971 0l-22.627-22.627a11.675 11.675 0 0 1-.043-.043l9.66 9.66 3.393-3.394 13.011 13.01a7.2 7.2 0 0 0 10.182-10.182l-1.13-1.131 3.393-3.394-12.445-12.445-9.065-9.065.014.014z"/><path id="pihde" d="M367.44 4051.2c4.686 4.687 4.686 12.285 0 16.971l-18.55 18.55 5.539-5.539-3.394-3.394 13.01-13.01a7.2 7.2 0 0 0-10.182-10.183l-1.131 1.131-3.394-3.394 1.131-1.131c4.686-4.687 12.284-4.687 16.97 0zm-36.77 19.8l6.223-6.223z"/><path id="pihdf" d="M367.44 4051.2l.022.023-.045-.044.023.022zm0 16.971l-22.628 22.628c-4.686 4.686-12.284 4.686-16.97 0-4.687-4.687-4.687-12.284 0-16.97l13.01-13.012 3.394 3.394-13.01 13.011a7.2 7.2 0 0 0 10.182 10.183l1.131-1.132 3.394 3.394 12.446-12.445 9.1-9.1a11.19 11.19 0 0 1-.05.05z"/></defs><g><g opacity=".4" transform="translate(-324 -4047)"><use fill="#fff" xlink:href="#pihda"/></g><g opacity=".4" transform="translate(-324 -4047)"><use fill="#fff" xlink:href="#pihdb"/></g><g opacity=".4" transform="translate(-324 -4047)"><use fill="#fff" xlink:href="#pihdc"/></g><g opacity=".4" transform="translate(-324 -4047)"><use fill="#fff" xlink:href="#pihdd"/></g><g opacity=".4" transform="translate(-324 -4047)"><use fill="#fff" xlink:href="#pihde"/></g><g opacity=".4" transform="translate(-324 -4047)"><use fill="#fff" xlink:href="#pihdf"/></g></g></svg>