<svg xmlns="http://www.w3.org/2000/svg" xmlns:xlink="http://www.w3.org/1999/xlink" width="242" height="60" viewBox="0 0 242 60"><defs><path id="mjsna" d="M240.451 73.452l-1.016-6.062-3.796 6.062zm-1.869 6.692l.2-.856c.804-.062 1.431-.162 1.88-.299.45-.136.674-.287.674-.45 0-.142-.008-.263-.023-.364a17.763 17.763 0 0 0-.059-.352l-.586-3.27h-5.725c-.189.29-.426.67-.712 1.144a87.79 87.79 0 0 0-.723 1.212c-.297.531-.471.895-.522 1.09-.05.195-.076.32-.076.375 0 .234.184.428.551.58.367.153.93.264 1.688.334l-.2.856h-6.988l.2-.856c.226-.016.51-.055.855-.117a2.97 2.97 0 0 0 .867-.281c.328-.172.636-.395.926-.668.289-.273.558-.606.808-.996 1.586-2.438 3.043-4.69 4.371-6.756l4.617-7.19h2.32l1.495 8.684c.394 2.289.74 4.203 1.037 5.742.039.234.115.447.229.639.113.191.294.373.544.545.188.125.416.219.686.28.27.063.521.102.756.118l-.2.856zm22.871-13.383c0-.774-.245-1.34-.734-1.7-.49-.359-1.134-.539-1.932-.539-.157 0-.341.006-.553.018l-.493.03-1.446 6.257h.785c1.345 0 2.41-.373 3.195-1.119.785-.746 1.178-1.728 1.178-2.947zm-.914 7.887c0-.899-.29-1.589-.868-2.069-.58-.48-1.436-.72-2.57-.72-.156 0-.35.005-.58.017-.231.012-.39.021-.476.03l-1.43 6.186c.008.29.223.536.645.739.423.203.892.305 1.408.305 1.04 0 1.945-.418 2.716-1.254.77-.836 1.155-1.914 1.155-3.234zm-.315-11.133c2.008 0 3.482.248 4.423.744.941.496 1.412 1.256 1.412 2.28 0 .679-.15 1.276-.452 1.792-.3.516-.697.95-1.19 1.3-.491.36-1.06.661-1.704.903a13.2 13.2 0 0 1-1.998.574l-.047.223c.539.055 1.088.17 1.646.346.559.176 1.038.4 1.436.674.43.289.77.64 1.02 1.054.25.414.374.918.374 1.512 0 1.711-.716 3.01-2.15 3.896-1.434.887-3.549 1.33-6.346 1.33h-9.093l.199-.855c.195-.007.486-.037.873-.088.387-.05.674-.107.861-.17.305-.101.537-.253.697-.457.16-.203.272-.44.335-.715l2.687-11.625c.039-.164.066-.3.082-.41.016-.109.023-.191.023-.246 0-.328-.166-.584-.498-.767-.332-.184-.873-.33-1.623-.44l.2-.855zM274.871 80.6c-1.07 0-2.063-.159-2.977-.476a6.877 6.877 0 0 1-2.367-1.367 6.178 6.178 0 0 1-1.535-2.176c-.367-.857-.55-1.825-.55-2.905 0-1.431.263-2.78.79-4.048a10.819 10.819 0 0 1 2.233-3.391c.922-.955 2.049-1.723 3.38-2.306a10.476 10.476 0 0 1 4.249-.874 11.8 11.8 0 0 1 2.754.333c.93.223 1.624.48 2.086.768l.878-.644h1.02l-1.3 6.07H282.5c-.156-1.773-.627-3.123-1.412-4.049-.785-.925-1.795-1.388-3.03-1.388-.906 0-1.742.27-2.507.809-.766.54-1.446 1.368-2.04 2.486-.484.923-.853 1.992-1.107 3.208-.254 1.216-.38 2.355-.38 3.418 0 1.564.378 2.78 1.136 3.648.758.868 1.773 1.302 3.047 1.302a5.55 5.55 0 0 0 3.105-.938c.953-.625 1.871-1.527 2.754-2.707l.903.61c-.383.593-.84 1.177-1.371 1.751a8.735 8.735 0 0 1-1.817 1.495 9.384 9.384 0 0 1-2.197 1.02c-.754.234-1.658.35-2.713.35zm31.043-5.79l-1.559 5.333H289.04l.2-.856c.195-.007.486-.037.872-.088.387-.05.674-.107.862-.17.312-.101.546-.253.703-.457.156-.203.265-.44.328-.715l2.687-11.625c.04-.164.067-.3.082-.41.016-.109.024-.191.024-.246 0-.328-.166-.584-.498-.767-.332-.184-.873-.33-1.623-.44l.199-.855h9.134l-.199.855c-.25.016-.57.053-.96.111-.391.059-.688.12-.891.182-.328.102-.567.264-.715.487a2.251 2.251 0 0 0-.317.708l-2.542 11.05a7.234 7.234 0 0 0-.129.663c-.031.215-.047.381-.047.498 0 .454.166.744.498.873.332.13 1.01.194 2.034.194.625 0 1.246-.047 1.863-.14.618-.095 1.079-.266 1.384-.516.484-.391 1.023-.951 1.617-1.682a20.962 20.962 0 0 0 1.454-1.987zm14.695-1.687c0 .984-.187 1.926-.562 2.824a6.936 6.936 0 0 1-1.594 2.344 7.813 7.813 0 0 1-2.607 1.646c-.996.387-2.116.58-3.358.58-1.664 0-3.008-.443-4.031-1.33-1.024-.886-1.535-2.095-1.535-3.626 0-1.04.193-2.004.58-2.895a7.104 7.104 0 0 1 1.623-2.332c.687-.648 1.531-1.162 2.531-1.54 1-.38 2.082-.57 3.246-.57 1.766 0 3.158.432 4.178 1.296 1.02.863 1.53 2.064 1.53 3.603zm-4.125-1.324c0-.914-.154-1.586-.463-2.016-.308-.43-.755-.644-1.341-.644-.602 0-1.153.24-1.653.72s-.906 1.186-1.218 2.116a12.251 12.251 0 0 0-.586 2.513c-.118.903-.176 1.71-.176 2.42 0 .946.156 1.631.469 2.057.312.426.765.639 1.359.639.64 0 1.195-.262 1.664-.786.469-.523.84-1.168 1.113-1.933.274-.75.48-1.58.621-2.49.141-.91.211-1.776.211-2.596zm13.7 7.113h-.093c-.195.156-.422.324-.68.504-.258.18-.535.336-.832.469-.36.172-.695.302-1.008.392-.313.09-.707.135-1.184.135-1.36 0-2.404-.398-3.135-1.195-.73-.797-1.096-1.89-1.096-3.281 0-1.055.188-2.045.563-2.971a8.267 8.267 0 0 1 1.523-2.455 7.077 7.077 0 0 1 2.244-1.652 6.348 6.348 0 0 1 2.737-.61c.703 0 1.324.074 1.863.223a3.84 3.84 0 0 1 1.395.691l3.58-.738.164.187-1.998 9.528c-.313 1.422-.747 2.595-1.301 3.521-.555.926-1.2 1.662-1.934 2.21-.75.554-1.533.938-2.35 1.153-.816.215-1.673.323-2.572.323-.96 0-1.744-.073-2.35-.217-.605-.145-1.068-.33-1.388-.557-.313-.218-.526-.463-.639-.732a2.033 2.033 0 0 1-.17-.791c0-.446.159-.846.475-1.201.316-.356.756-.533 1.319-.533.421 0 .798.113 1.13.34.333.226.624.5.874.82.226.289.437.622.633 1.002.195.379.343.685.445.92.36-.063.717-.164 1.072-.305.356-.141.698-.406 1.026-.797.312-.375.611-.895.897-1.558.285-.665.549-1.606.79-2.825zm1.575-7.676c0-.195-.026-.396-.077-.603a1.548 1.548 0 0 0-.299-.592 1.623 1.623 0 0 0-.551-.463c-.22-.113-.516-.17-.891-.17-.509 0-.978.182-1.408.545-.43.363-.81.85-1.138 1.459-.32.602-.574 1.303-.762 2.104a10.827 10.827 0 0 0-.281 2.478c0 .375.033.721.099 1.037.066.317.182.6.346.85.164.25.376.438.638.562.261.125.556.188.884.188.383 0 .775-.117 1.177-.352.403-.234.725-.484.967-.75zm13.577 7.23l-.258 1.056a50.9 50.9 0 0 1-1.851.697c-.462.16-.997.24-1.606.24-.937 0-1.666-.229-2.185-.686-.52-.457-.78-1.037-.78-1.74 0-.273.02-.553.059-.838.039-.285.101-.607.187-.967l.968-3.421c.086-.328.159-.64.217-.932a4.12 4.12 0 0 0 .088-.803c0-.437-.09-.742-.27-.914-.18-.172-.525-.258-1.034-.258-.25 0-.507.04-.77.118a10.74 10.74 0 0 0-.675.222l.258-1.055c.633-.257 1.24-.478 1.818-.662a5.445 5.445 0 0 1 1.643-.275c.93 0 1.648.225 2.153.674.504.45.756 1.033.756 1.752 0 .148-.017.41-.052.785-.036.375-.1.719-.194 1.031l-.964 3.41a9.443 9.443 0 0 0-.211.938 4.975 4.975 0 0 0-.094.797c0 .453.101.761.304.926.203.164.554.246 1.053.246.234 0 .5-.041.796-.123.297-.083.511-.155.644-.217zm.246-14.308c0 .594-.225 1.1-.674 1.518-.45.418-.99.627-1.623.627a2.32 2.32 0 0 1-1.629-.627c-.453-.418-.68-.924-.68-1.518 0-.593.227-1.101.68-1.523a2.307 2.307 0 0 1 1.63-.633c.632 0 1.173.21 1.622.633.45.422.674.93.674 1.523zm5.273 16.371c-.984 0-1.798-.08-2.443-.24-.644-.16-1.154-.365-1.53-.615-.382-.25-.644-.518-.784-.803a1.821 1.821 0 0 1-.211-.803c0-.453.17-.85.51-1.19.34-.339.79-.509 1.353-.509.469 0 .861.121 1.178.363.316.243.58.547.79.915.196.335.36.707.493 1.113s.226.707.281.902c.883 0 1.55-.19 2.004-.568.453-.379.68-.897.68-1.553 0-.289-.069-.531-.205-.726a1.974 1.974 0 0 0-.545-.516 5.08 5.08 0 0 0-.867-.41 34.9 34.9 0 0 0-1.043-.375c-.946-.32-1.694-.764-2.245-1.33-.55-.567-.826-1.272-.826-2.116 0-.5.115-.97.346-1.412.23-.44.592-.85 1.084-1.224.484-.36 1.097-.647 1.84-.862.742-.214 1.61-.322 2.601-.322.594 0 1.145.035 1.653.105.508.07.98.2 1.418.387.414.188.736.432.966.732.23.302.346.667.346 1.096 0 .43-.162.8-.486 1.108-.324.309-.748.463-1.272.463-.453 0-.83-.118-1.13-.353a2.926 2.926 0 0 1-.733-.835 5.18 5.18 0 0 1-.445-1.018c-.11-.349-.2-.64-.27-.876a2.554 2.554 0 0 0-1.494.595c-.45.366-.674.82-.674 1.362 0 .328.053.586.158.773.106.188.248.344.428.469.203.14.46.271.768.393.308.12.693.26 1.154.415 1.063.375 1.863.825 2.402 1.348.54.524.809 1.215.809 2.074 0 .563-.13 1.102-.393 1.618a3.512 3.512 0 0 1-1.119 1.289c-.539.375-1.16.658-1.863.85-.703.19-1.598.286-2.684.286zm12.094-.082c-.937 0-1.687-.228-2.25-.685-.562-.457-.844-1.037-.844-1.74 0-.29.02-.563.059-.82.039-.259.101-.59.187-.997l1.453-6.234h-2.144l.28-1.207h2.189l.848-3.551h3.795l-.824 3.55h3.18l-.28 1.208h-3.164l-1.429 6.234a9.873 9.873 0 0 0-.158.797c-.051.313-.076.516-.076.61 0 .445.123.753.369.925.246.172.623.258 1.13.258.242 0 .576-.047 1.002-.14.425-.094.724-.172.896-.235l-.258 1.055c-.688.304-1.377.543-2.068.714-.692.172-1.323.258-1.893.258zm13.582-1.98l-.258 1.055a50.9 50.9 0 0 1-1.851.697c-.461.16-.996.24-1.606.24-.937 0-1.666-.229-2.185-.686-.52-.457-.78-1.037-.78-1.74 0-.273.02-.553.06-.838.038-.285.1-.607.187-.967l.967-3.421c.086-.328.159-.64.218-.932a4.12 4.12 0 0 0 .088-.803c0-.437-.09-.742-.27-.914-.18-.172-.525-.258-1.035-.258-.25 0-.507.04-.77.118-.262.078-.487.152-.675.222l.258-1.055c.634-.257 1.24-.478 1.819-.662a5.447 5.447 0 0 1 1.642-.275c.931 0 1.649.225 2.153.674.504.45.757 1.033.757 1.752 0 .148-.018.41-.053.785-.035.375-.1.719-.193 1.031l-.964 3.41a9.412 9.412 0 0 0-.212.938 4.962 4.962 0 0 0-.094.797c0 .453.102.761.304.926.203.164.554.246 1.054.246.234 0 .499-.041.795-.123.297-.083.511-.155.644-.217zm.246-14.309c0 .594-.224 1.1-.674 1.518-.449.418-.99.627-1.623.627a2.32 2.32 0 0 1-1.629-.627c-.453-.418-.68-.924-.68-1.518 0-.593.227-1.101.68-1.523a2.307 2.307 0 0 1 1.63-.633c.632 0 1.173.21 1.622.633.45.422.674.93.674 1.523zm6.703 16.371c-1.797 0-3.197-.449-4.2-1.347-1.005-.899-1.507-2.133-1.507-3.703 0-.945.16-1.842.48-2.69.321-.848.813-1.619 1.477-2.314.617-.657 1.41-1.192 2.38-1.606.968-.414 2.05-.621 3.245-.621 1.383 0 2.44.254 3.17.762s1.096 1.207 1.096 2.097c0 .243-.04.512-.117.809a2.09 2.09 0 0 1-.352.75c-.195.25-.408.442-.638.574-.23.133-.577.2-1.038.2-.609 0-1.084-.15-1.423-.452-.34-.3-.51-.615-.51-.943 0-.39.082-.777.246-1.16.164-.383.37-.785.621-1.207-.07-.086-.213-.192-.428-.317-.215-.124-.494-.187-.837-.187-.915 0-1.672.553-2.274 1.658-.602 1.105-.902 2.475-.902 4.108 0 1.242.228 2.183.685 2.824.457.64 1.108.96 1.951.96.86 0 1.577-.165 2.15-.497.575-.332 1.163-.9 1.764-1.705l.844.714a7.254 7.254 0 0 1-2.543 2.391 6.64 6.64 0 0 1-3.34.902zm11.426 0c-.984 0-1.799-.08-2.443-.24-.645-.16-1.154-.365-1.53-.615-.382-.25-.644-.518-.785-.803a1.822 1.822 0 0 1-.21-.803c0-.453.17-.85.51-1.19.339-.339.79-.509 1.353-.509.468 0 .861.121 1.177.363.317.243.58.547.791.915.196.335.36.707.493 1.113.132.406.226.707.281.902.883 0 1.55-.19 2.004-.568.453-.379.68-.897.68-1.553 0-.289-.069-.531-.206-.726a1.972 1.972 0 0 0-.544-.516 5.08 5.08 0 0 0-.868-.41c-.351-.133-.699-.258-1.043-.375-.945-.32-1.693-.764-2.244-1.33-.55-.567-.826-1.272-.826-2.116 0-.5.115-.97.346-1.412.23-.44.592-.85 1.084-1.224.484-.36 1.097-.647 1.84-.862.742-.214 1.609-.322 2.601-.322.594 0 1.145.035 1.652.105.508.07.98.2 1.418.387.414.188.737.432.967.732.23.302.346.667.346 1.096 0 .43-.162.8-.486 1.108-.325.309-.749.463-1.272.463-.453 0-.83-.118-1.13-.353a2.922 2.922 0 0 1-.733-.835 5.18 5.18 0 0 1-.445-1.018c-.11-.349-.2-.64-.27-.876a2.554 2.554 0 0 0-1.494.595c-.45.366-.674.82-.674 1.362 0 .328.053.586.158.773.106.188.248.344.428.469.203.14.459.271.768.393.308.12.693.26 1.154.415 1.062.375 1.863.825 2.402 1.348.54.524.809 1.215.809 2.074 0 .563-.131 1.102-.393 1.618a3.512 3.512 0 0 1-1.119 1.289 5.98 5.98 0 0 1-1.863.85c-.703.19-1.598.286-2.684.286z"/><path id="mjsnb" d="M229.333 89.783h4.307V96h-.721v-5.617h-2.868v1.164c0 1.113-.04 1.998-.12 2.654-.07.623-.213 1.086-.428 1.39a1.032 1.032 0 0 1-.89.456c-.208 0-.384-.028-.528-.082v-.59c.127.032.27.048.43.048.192 0 .364-.136.516-.408.06-.101.11-.257.147-.467.037-.21.068-.52.092-.933.024-.412.041-.9.05-1.462.009-.562.013-1.352.013-2.37zm9.003 6.384c-.54 0-1.027-.125-1.463-.372-.437-.249-.782-.62-1.036-1.116-.254-.497-.381-1.092-.381-1.788 0-.613.108-1.168.325-1.665.217-.497.543-.89.979-1.178.435-.288.96-.432 1.576-.432.621 0 1.15.143 1.585.429.435.286.76.676.974 1.17.214.495.32 1.053.32 1.676 0 .49-.067.937-.203 1.34-.136.401-.33.747-.583 1.035-.253.288-.558.51-.915.666a2.91 2.91 0 0 1-1.178.235zm2.112-3.276c0-.789-.171-1.424-.514-1.905-.343-.482-.876-.723-1.598-.723-.479 0-.877.121-1.194.364a2.09 2.09 0 0 0-.697.962 3.73 3.73 0 0 0-.221 1.302c0 .52.08.978.241 1.374a2 2 0 0 0 .722.925c.32.22.704.33 1.149.33.474 0 .871-.123 1.19-.366.32-.243.554-.564.701-.963.147-.4.221-.833.221-1.3zm6.267-2.508h-3.12V96h-.721v-6.217h3.84zm5.405-.6h.794V96h-.72v-5.256L248.653 96h-.802v-6.217h.72v5.256zm7.878 1.957h-.732c-.127-.47-.349-.834-.664-1.092-.315-.256-.71-.385-1.185-.385-.463 0-.852.126-1.168.375-.315.25-.547.577-.695.979a3.687 3.687 0 0 0-.223 1.286c0 .729.174 1.346.521 1.855.348.507.87.761 1.565.761.527 0 .956-.147 1.286-.442.33-.295.538-.703.624-1.225h.768c-.131.719-.422 1.285-.872 1.696-.45.413-1.052.619-1.806.619-.479 0-.9-.082-1.263-.246a2.371 2.371 0 0 1-.896-.689 2.964 2.964 0 0 1-.523-1.039 4.65 4.65 0 0 1-.172-1.29c0-.441.063-.86.188-1.254s.309-.744.55-1.05c.243-.306.543-.546.902-.72a2.736 2.736 0 0 1 1.214-.263c.477 0 .896.077 1.258.231.363.155.655.39.88.705.223.315.37.711.443 1.188zm6.015-1.957v.6h-2.09V96h-.72v-5.617h-2.062v-.6zm5.106 0h.794V96h-.72v-5.256L267.652 96h-.802v-6.217h.72v5.256zm6.63 2.666v-2.666h.72V96h-.72v-2.942c-.484.153-1.124.229-1.919.229-.55 0-1.015-.166-1.392-.498-.376-.332-.565-.794-.565-1.386v-1.62h.72v1.705c0 .361.124.644.371.847.247.203.58.304.998.304.572 0 .968-.014 1.186-.042.22-.028.42-.078.601-.148zm2.555.012h4.057c0-.41-.075-.783-.225-1.117a1.812 1.812 0 0 0-.67-.79c-.296-.194-.654-.29-1.073-.29-.409 0-.76.097-1.057.294-.296.196-.528.46-.698.791a3.35 3.35 0 0 0-.334 1.112zm4.825.6h-4.825c0 .449.08.862.24 1.238.16.377.397.674.71.893.314.218.693.327 1.139.327.476 0 .883-.125 1.221-.375.338-.25.559-.6.662-1.049h.806c-.424 1.381-1.32 2.072-2.69 2.072-.64 0-1.175-.14-1.603-.42a2.475 2.475 0 0 1-.948-1.158c-.203-.491-.305-1.05-.305-1.675 0-.45.065-.877.196-1.278s.322-.754.572-1.058c.25-.303.552-.54.908-.709a2.714 2.714 0 0 1 1.18-.253c.424 0 .807.075 1.148.224.34.15.628.37.864.661.235.292.415.653.539 1.084.124.43.186.923.186 1.476zm6.867-1.321h-.732c-.127-.47-.349-.834-.664-1.092-.315-.256-.71-.385-1.185-.385-.463 0-.852.126-1.168.375-.315.25-.547.577-.695.979a3.687 3.687 0 0 0-.223 1.286c0 .729.174 1.346.521 1.855.348.507.87.761 1.565.761.527 0 .956-.147 1.286-.442.33-.295.538-.703.624-1.225h.768c-.131.719-.422 1.285-.872 1.696-.45.413-1.052.619-1.806.619-.479 0-.9-.082-1.263-.246a2.37 2.37 0 0 1-.896-.689 2.964 2.964 0 0 1-.523-1.039 4.655 4.655 0 0 1-.172-1.29c0-.441.063-.86.188-1.254s.309-.744.55-1.05c.243-.306.543-.546.902-.72a2.735 2.735 0 0 1 1.214-.263c.477 0 .896.077 1.258.231.363.155.656.39.88.705.223.315.37.711.443 1.188zM294.53 96h-.72v-6.217h.72v2.953l3.05-2.953h.984l-2.329 2.244L298.84 96h-.806l-2.326-3.47-1.178 1.117zm9.396-2.291v-.973c-.4.166-1.02.282-1.858.349-1.168.088-1.752.527-1.752 1.318 0 .358.132.633.394.826.263.194.58.29.948.29.627 0 1.162-.154 1.604-.463.443-.308.664-.757.664-1.347zm-4.377.67c0-1.054.724-1.678 2.172-1.871l.995-.132c.408-.037.723-.106.946-.205.176-.078.264-.294.264-.648 0-.39-.125-.698-.374-.923-.249-.224-.64-.337-1.173-.337s-.952.106-1.257.317c-.305.21-.49.573-.554 1.087h-.73c.033-.467.165-.855.395-1.163.23-.31.53-.534.9-.676.37-.141.79-.212 1.258-.212.688 0 1.235.153 1.643.458.408.306.612.797.612 1.473v3.383c0 .205.024.353.07.443.048.09.133.134.256.134.1 0 .243-.032.43-.096v.565c-.246.08-.433.12-.562.12a1.36 1.36 0 0 1-.325-.038c-.217-.03-.365-.127-.444-.288-.08-.161-.123-.373-.13-.635-.615.688-1.387 1.032-2.316 1.032-.586 0-1.078-.156-1.478-.466-.399-.31-.598-.75-.598-1.321zm10.884-1.03h-1.716l-1.498 2.65h-.806l1.573-2.712c-1.023-.25-1.535-.821-1.535-1.714 0-.713.227-1.19.681-1.43.454-.24.915-.36 1.382-.36h2.64V96h-.721zm0-.601v-2.365h-1.62c-.53 0-.928.104-1.195.31-.266.206-.4.5-.4.88 0 .371.135.66.403.866.268.206.613.309 1.035.309zM316.529 96h-.72v-6.217h.72v2.953l3.05-2.953h.984l-2.329 2.244L320.84 96h-.806l-2.326-3.47-1.178 1.117zm7.802.167c-.54 0-1.027-.125-1.463-.372-.437-.249-.782-.62-1.036-1.116-.254-.497-.38-1.092-.38-1.788 0-.613.108-1.168.324-1.665.217-.497.543-.89.979-1.178.435-.288.96-.432 1.576-.432.621 0 1.15.143 1.585.429.435.286.76.676.974 1.17.214.495.32 1.053.32 1.676 0 .49-.067.937-.203 1.34-.135.401-.33.747-.583 1.035-.253.288-.558.51-.915.666a2.91 2.91 0 0 1-1.178.235zm2.112-3.276c0-.789-.171-1.424-.514-1.905-.343-.482-.875-.723-1.598-.723-.479 0-.876.121-1.194.364a2.09 2.09 0 0 0-.697.962 3.73 3.73 0 0 0-.221 1.302c0 .52.08.978.241 1.374a2 2 0 0 0 .723.925c.32.22.703.33 1.148.33.475 0 .872-.123 1.19-.366.32-.243.554-.564.701-.963.148-.4.221-.833.221-1.3zM329.52 96h-.72v-6.217h.937l2.1 5.4 2.084-5.4h.937V96h-.72v-5.09l-1.98 5.09h-.658l-1.98-5.09zm12.235-6.217V96h-.72v-5.617h-3.455V96h-.72v-6.217zm6.17 3.926v-.973c-.4.166-1.02.282-1.858.349-1.168.088-1.752.527-1.752 1.318 0 .358.132.633.394.826.263.194.579.29.948.29.627 0 1.162-.154 1.604-.463.443-.308.664-.757.664-1.347zm-4.377.67c0-1.054.724-1.678 2.172-1.871l.995-.132c.408-.037.723-.106.946-.205.176-.078.264-.294.264-.648 0-.39-.125-.698-.374-.923-.249-.224-.64-.337-1.173-.337s-.952.106-1.257.317c-.305.21-.49.573-.554 1.087h-.73c.033-.467.165-.855.395-1.163.23-.31.53-.534.9-.676.37-.141.79-.212 1.259-.212.687 0 1.234.153 1.642.458.408.306.612.797.612 1.473v3.383c0 .205.024.353.07.443.048.09.133.134.256.134.1 0 .243-.032.43-.096v.565c-.246.08-.433.12-.562.12-.113 0-.222-.012-.325-.038-.217-.03-.365-.127-.444-.288-.08-.161-.123-.373-.13-.635-.615.688-1.387 1.032-2.316 1.032-.586 0-1.078-.156-1.477-.466-.4-.31-.6-.75-.6-1.321zm12.24-4.596V96h-.72v-3.012h-3.455V96h-.72v-6.217h.72v2.604h3.454v-2.604zm6.325 0h.794V96h-.72v-5.256L358.645 96h-.802v-6.217h.72v5.256zm6.317 3.565h-1.716L365.215 96h-.806l1.573-2.713c-1.023-.25-1.535-.821-1.535-1.714 0-.713.227-1.19.681-1.43.454-.24.915-.36 1.382-.36h2.64V96h-.721zm0-.6v-2.365h-1.619c-.53 0-.93.104-1.196.31-.266.206-.4.5-.4.88 0 .371.135.66.403.866.269.206.613.309 1.035.309z"/><path id="mjsnc" d="M186.464 55.251l28.285 28.284.017.018-12.038-12.039-4.243 4.243-16.263-16.263a9 9 0 0 0-12.728 12.728l1.414 1.414-4.243 4.242 14.85 14.85-16.264-16.264c-5.858-5.858-5.858-15.355 0-21.213 5.858-5.858 15.356-5.858 21.213 0zm28.285 49.498l-.037.036.073-.073-.036.037zm-21.213 0l-9.484-9.484 9.517 9.517a14.747 14.747 0 0 1-.033-.033z"/><path id="mjsnd" d="M186.464 55.251l11.314 11.314-11.33-11.33.016.016zm28.285 28.284c5.857 5.858 5.857 15.356 0 21.214-5.858 5.857-15.356 5.857-21.213 0L165.25 76.464a15.503 15.503 0 0 1-.054-.054l12.075 12.075 4.243-4.243 16.263 16.264a9 9 0 0 0 12.728-12.728l-1.414-1.414 4.242-4.243-5.03-5.03z"/><path id="mjsne" d="M214.749 55.251c5.857 5.858 5.857 15.355 0 21.213l-28.285 28.285-.04.04 12.061-12.061-4.242-4.243 16.263-16.263a9 9 0 0 0-12.728-12.728l-1.414 1.414-4.243-4.243 1.415-1.414c5.857-5.858 15.355-5.858 21.213 0zm-37.477 16.263l-12.039 12.039.018-.018 21.84-21.84-9.819 9.82zm-12.02 33.235a13.937 13.937 0 0 1-.037-.037l.073.073a12.502 12.502 0 0 1-.037-.036z"/><path id="mjsnf" d="M214.749 76.464l-28.285 28.285c-5.857 5.857-15.355 5.857-21.213 0-5.858-5.858-5.858-15.356 0-21.214l16.264-16.263 4.242 4.242-16.263 16.264a9 9 0 1 0 12.728 12.728l1.414-1.415 4.243 4.243 15.556-15.556 11.368-11.368a13.9 13.9 0 0 1-.054.054z"/></defs><g><g transform="translate(-160 -50)"><use fill="#fff" xlink:href="#mjsna"/></g><g transform="translate(-160 -50)"><use fill="#fff" xlink:href="#mjsnb"/></g><g transform="translate(-160 -50)"><use fill="#fff" xlink:href="#mjsnc"/></g><g transform="translate(-160 -50)"><use fill="#fff" xlink:href="#mjsnd"/></g><g transform="translate(-160 -50)"><use fill="#fff" xlink:href="#mjsne"/></g><g transform="translate(-160 -50)"><use fill="#fff" xlink:href="#mjsnf"/></g></g></svg>