<svg xmlns="http://www.w3.org/2000/svg" xmlns:xlink="http://www.w3.org/1999/xlink" width="39" height="48" viewBox="0 0 39 48"><defs><path id="h1ova" d="M1320.5 3708.01s-13.846-11.745-17.899-22.01h4.332c3.75 8.135 13.567 17.383 13.567 17.383s15.074-14.053 15-22.844c-.099-11.76-6.716-16.548-15-16.548-8.157 0-14.762 4.637-14.994 16.009h-3.993c.37-14.212 8.706-20.01 18.987-20.01 10.493 0 18.875 6.046 19 20.902.093 11.104-19 27.117-19 27.117zm-19-27.118v-.052V3680.892z"/><path id="h1ovb" d="M1320.5 3672a7 7 0 1 1 0 14 7 7 0 0 1 0-14zm-3 7a3 3 0 1 0 6 0 3 3 0 0 0-6 0z"/></defs><g><g opacity=".8" transform="translate(-1301 -3660)"><use fill="#f9a03e" xlink:href="#h1ova"/></g><g opacity=".8" transform="translate(-1301 -3660)"><use fill="#f9a03e" xlink:href="#h1ovb"/></g></g></svg>